<mxfile host="app.diagrams.net" modified="2021-09-12T04:07:50.595Z" agent="5.0 (Macintosh)" etag="Cu5T9fc-h_jIGGIXAVck" version="15.1.4" type="github">
  <diagram id="ARFAxi0KdtHPudQOAwqh" name="Page-1">
    <mxGraphModel dx="1995" dy="1155" grid="1" gridSize="10" guides="1" tooltips="1" connect="1" arrows="1" fold="1" page="1" pageScale="1" pageWidth="827" pageHeight="1169" math="0" shadow="0">
      <root>
        <mxCell id="0" />
        <mxCell id="1" parent="0" />
        <mxCell id="J0y3WeoziUCY8ritZgpN-1" value="&lt;div&gt;CDN&lt;/div&gt;&lt;div&gt;AWS CloudFront&lt;/div&gt;" style="sketch=0;points=[[0,0,0],[0.25,0,0],[0.5,0,0],[0.75,0,0],[1,0,0],[0,1,0],[0.25,1,0],[0.5,1,0],[0.75,1,0],[1,1,0],[0,0.25,0],[0,0.5,0],[0,0.75,0],[1,0.25,0],[1,0.5,0],[1,0.75,0]];outlineConnect=0;fontColor=#232F3E;gradientColor=#945DF2;gradientDirection=north;fillColor=#5A30B5;strokeColor=#ffffff;dashed=0;verticalLabelPosition=bottom;verticalAlign=top;align=center;html=1;fontSize=12;fontStyle=0;aspect=fixed;shape=mxgraph.aws4.resourceIcon;resIcon=mxgraph.aws4.cloudfront;" parent="1" vertex="1">
          <mxGeometry x="40" y="440" width="78" height="78" as="geometry" />
        </mxCell>
        <mxCell id="hpqaFl9niPtcVTVSsJLT-1" value="" style="endArrow=classic;html=1;exitX=1;exitY=0.5;exitDx=0;exitDy=0;exitPerimeter=0;entryX=0;entryY=0.5;entryDx=0;entryDy=0;" parent="1" source="J0y3WeoziUCY8ritZgpN-1" edge="1" target="FkVXVYRy-pQdbBb8ZdKn-3">
          <mxGeometry width="50" height="50" relative="1" as="geometry">
            <mxPoint x="390" y="610" as="sourcePoint" />
            <mxPoint x="200" y="400" as="targetPoint" />
          </mxGeometry>
        </mxCell>
        <mxCell id="hpqaFl9niPtcVTVSsJLT-2" value="&lt;div&gt;&lt;font style=&quot;font-size: 12px&quot;&gt;Default&lt;/font&gt;&lt;/div&gt;&lt;div&gt;&lt;font style=&quot;font-size: 12px&quot;&gt;Behaviour&lt;/font&gt;&lt;br&gt;&lt;/div&gt;" style="edgeLabel;html=1;align=center;verticalAlign=middle;resizable=0;points=[];" parent="hpqaFl9niPtcVTVSsJLT-1" vertex="1" connectable="0">
          <mxGeometry x="0.2671" relative="1" as="geometry">
            <mxPoint as="offset" />
          </mxGeometry>
        </mxCell>
        <mxCell id="hpqaFl9niPtcVTVSsJLT-3" value="" style="endArrow=classic;html=1;exitX=1;exitY=0.5;exitDx=0;exitDy=0;exitPerimeter=0;entryX=0;entryY=0.5;entryDx=0;entryDy=0;entryPerimeter=0;" parent="1" source="J0y3WeoziUCY8ritZgpN-1" edge="1" target="FkVXVYRy-pQdbBb8ZdKn-6">
          <mxGeometry width="50" height="50" relative="1" as="geometry">
            <mxPoint x="150" y="490" as="sourcePoint" />
            <mxPoint x="200" y="560" as="targetPoint" />
          </mxGeometry>
        </mxCell>
        <mxCell id="hpqaFl9niPtcVTVSsJLT-4" value="&lt;font style=&quot;font-size: 12px&quot;&gt;/api&lt;/font&gt;" style="edgeLabel;html=1;align=center;verticalAlign=middle;resizable=0;points=[];" parent="hpqaFl9niPtcVTVSsJLT-3" vertex="1" connectable="0">
          <mxGeometry x="0.225" y="-1" relative="1" as="geometry">
            <mxPoint y="1" as="offset" />
          </mxGeometry>
        </mxCell>
        <mxCell id="FkVXVYRy-pQdbBb8ZdKn-2" style="edgeStyle=orthogonalEdgeStyle;rounded=0;orthogonalLoop=1;jettySize=auto;html=1;entryX=0.5;entryY=0;entryDx=0;entryDy=0;entryPerimeter=0;" edge="1" parent="1" source="FkVXVYRy-pQdbBb8ZdKn-1" target="J0y3WeoziUCY8ritZgpN-1">
          <mxGeometry relative="1" as="geometry" />
        </mxCell>
        <mxCell id="FkVXVYRy-pQdbBb8ZdKn-1" value="" style="aspect=fixed;perimeter=ellipsePerimeter;html=1;align=center;shadow=0;dashed=0;spacingTop=3;image;image=img/lib/active_directory/laptop_client.svg;" vertex="1" parent="1">
          <mxGeometry x="56.5" y="340" width="45" height="50" as="geometry" />
        </mxCell>
        <mxCell id="FkVXVYRy-pQdbBb8ZdKn-3" value="&lt;div&gt;S3&lt;/div&gt;&lt;div&gt; as static &lt;br&gt;&lt;/div&gt;&lt;div&gt;web page&lt;/div&gt;" style="aspect=fixed;perimeter=ellipsePerimeter;html=1;align=center;shadow=0;dashed=0;spacingTop=3;image;image=img/lib/active_directory/database.svg;" vertex="1" parent="1">
          <mxGeometry x="200" y="380" width="50" height="37" as="geometry" />
        </mxCell>
        <mxCell id="FkVXVYRy-pQdbBb8ZdKn-11" style="edgeStyle=orthogonalEdgeStyle;rounded=0;orthogonalLoop=1;jettySize=auto;html=1;entryX=0;entryY=0.5;entryDx=0;entryDy=0;entryPerimeter=0;" edge="1" parent="1" source="FkVXVYRy-pQdbBb8ZdKn-6" target="FkVXVYRy-pQdbBb8ZdKn-9">
          <mxGeometry relative="1" as="geometry" />
        </mxCell>
        <mxCell id="FkVXVYRy-pQdbBb8ZdKn-6" value="&lt;div&gt;Application Load &lt;br&gt;&lt;/div&gt;&lt;div&gt;Balancer&lt;/div&gt;" style="outlineConnect=0;dashed=0;verticalLabelPosition=bottom;verticalAlign=top;align=center;html=1;shape=mxgraph.aws3.application_load_balancer;fillColor=#F58534;gradientColor=none;" vertex="1" parent="1">
          <mxGeometry x="190.5" y="520" width="69.5" height="72" as="geometry" />
        </mxCell>
        <mxCell id="FkVXVYRy-pQdbBb8ZdKn-9" value="&lt;div&gt;Container Services&lt;/div&gt;&lt;div&gt;&lt;br&gt;&lt;/div&gt;" style="sketch=0;points=[[0,0,0],[0.25,0,0],[0.5,0,0],[0.75,0,0],[1,0,0],[0,1,0],[0.25,1,0],[0.5,1,0],[0.75,1,0],[1,1,0],[0,0.25,0],[0,0.5,0],[0,0.75,0],[1,0.25,0],[1,0.5,0],[1,0.75,0]];outlineConnect=0;fontColor=#232F3E;gradientColor=#F78E04;gradientDirection=north;fillColor=#D05C17;strokeColor=#ffffff;dashed=0;verticalLabelPosition=bottom;verticalAlign=top;align=center;html=1;fontSize=12;fontStyle=0;aspect=fixed;shape=mxgraph.aws4.resourceIcon;resIcon=mxgraph.aws4.fargate;" vertex="1" parent="1">
          <mxGeometry x="310" y="516" width="80" height="80" as="geometry" />
        </mxCell>
      </root>
    </mxGraphModel>
  </diagram>
</mxfile>
